<?xml version="1.0" standalone="no"?>
<!DOCTYPE svg PUBLIC "-//W3C//DTD SVG 20010904//EN"
 "http://www.w3.org/TR/2001/REC-SVG-20010904/DTD/svg10.dtd">
<svg version="1.0" xmlns="http://www.w3.org/2000/svg"
 width="512.000000pt" height="512.000000pt" viewBox="0 0 512.000000 512.000000"
 preserveAspectRatio="xMidYMid meet">

<g transform="translate(0.000000,512.000000) scale(0.100000,-0.100000)"
fill="#a1d2f6" stroke="none">
<path d="M2321 5110 c-497 -48 -990 -251 -1376 -565 -114 -92 -294 -274 -384
-387 -229 -287 -417 -675 -495 -1023 -49 -218 -60 -325 -60 -575 0 -250 11
-357 60 -575 79 -355 272 -749 509 -1040 92 -114 274 -294 387 -384 287 -229
675 -417 1023 -495 218 -49 325 -60 575 -60 250 0 357 11 575 60 330 74 685
240 973 456 119 89 339 302 437 423 287 353 474 777 547 1240 32 201 32 549 0
750 -45 284 -117 512 -243 764 -129 261 -281 470 -491 678 -211 209 -404 346
-673 478 -252 124 -486 197 -765 240 -126 19 -468 27 -599 15z m97 -1762 l-3
-653 -655 0 -655 0 0 595 c0 658 -2 641 64 686 l36 24 607 0 608 0 -2 -652z
m1529 609 l38 -37 3 -615 2 -615 -655 0 -655 0 0 655 0 655 615 -2 615 -3 37
-38z m-1529 -2184 l2 -653 -606 0 c-598 0 -607 0 -641 21 -70 44 -68 18 -71
673 -1 324 0 596 2 603 5 11 123 13 658 11 l653 -3 3 -652z m1570 42 l-3 -615
-38 -37 -37 -38 -615 -3 -615 -2 0 655 0 655 655 0 655 0 -2 -615z"/>
<path d="M1620 3610 l0 -129 -132 -3 -133 -3 0 -130 0 -130 133 -3 132 -3 0
-129 0 -130 135 0 135 0 0 130 0 130 130 0 130 0 0 135 0 135 -130 0 -130 0 0
130 0 130 -135 0 -135 0 0 -130z"/>
<path d="M2960 3345 l0 -135 395 0 395 0 0 135 0 135 -395 0 -395 0 0 -135z"/>
<path d="M1472 2058 l-92 -93 92 -92 93 -93 -95 -95 -95 -95 90 -90 c49 -49
94 -90 100 -90 6 0 51 41 100 90 l90 90 92 -92 93 -93 92 93 93 92 -93 92 -92
93 95 95 95 95 -95 95 -95 95 -95 -95 -95 -95 -93 93 -92 92 -93 -92z"/>
<path d="M2960 1975 l0 -135 395 0 395 0 0 135 0 135 -395 0 -395 0 0 -135z"/>
<path d="M2960 1580 l0 -130 395 0 395 0 0 130 0 130 -395 0 -395 0 0 -130z"/>
</g>
</svg>
